<svg width="82" height="82" viewBox="0 0 82 82" fill="none" xmlns="http://www.w3.org/2000/svg">
<rect x="1.36603" y="30.366" width="58" height="58" transform="rotate(-30 1.36603 30.366)" stroke="#FF0000" stroke-width="2"/>
<g clip-path="url(#clip0_13_10)">
<path d="M42.8862 61.1991C43.1358 61.3015 43.3349 61.4983 43.4402 61.7467C43.5455 61.9951 43.5485 62.275 43.4486 62.5257L42.3197 65.3311C42.2184 65.5805 42.0222 65.7795 41.7742 65.8844C41.5263 65.9893 41.2468 65.9915 40.9973 65.8905L23.4803 58.7626C23.2308 58.66 23.0318 58.463 22.9267 58.2146C22.8215 57.9661 22.8187 57.6861 22.9187 57.4356L24.0518 54.6317C24.1018 54.5081 24.1758 54.3956 24.2693 54.3005C24.3629 54.2055 24.4742 54.1299 24.5971 54.0779C24.7199 54.026 24.8517 53.9987 24.985 53.9978C25.1184 53.9968 25.2506 54.0221 25.3742 54.0723L42.8862 61.1991ZM46.738 30.6216C46.9876 30.7242 47.1865 30.9212 47.2917 31.1696C47.3968 31.4181 47.3997 31.6981 47.2996 31.9486L40.1887 49.5934C40.0874 49.8429 39.8912 50.0419 39.6432 50.1468C39.3953 50.2517 39.1158 50.2539 38.8663 50.1529L34.3456 48.31C34.0961 48.2074 33.8971 48.0105 33.792 47.762C33.6868 47.5135 33.684 47.2336 33.784 46.983L40.8922 29.3395C40.9422 29.216 41.016 29.1035 41.1095 29.0085C41.203 28.9136 41.3143 28.838 41.437 28.7861C41.5598 28.7341 41.6915 28.7069 41.8248 28.706C41.9581 28.705 42.0902 28.7304 42.2137 28.7805L46.738 30.6216ZM45.3046 55.1937C45.8225 55.4044 46.0751 56.0014 45.8662 56.5207L44.734 59.3264C44.6839 59.45 44.61 59.5626 44.5164 59.6576C44.4229 59.7526 44.3115 59.8282 44.1887 59.8802C44.0659 59.9321 43.934 59.9594 43.8007 59.9603C43.6674 59.9613 43.5351 59.936 43.4116 59.8859L25.9011 52.755C25.6515 52.6525 25.4524 52.4557 25.347 52.2073C25.2417 51.9589 25.2387 51.679 25.3386 51.4284L26.4675 48.6253C26.5688 48.3758 26.765 48.1768 27.0129 48.0719C27.2609 47.967 27.5403 47.9649 27.7899 48.0659L45.3046 55.1937ZM55.7722 26.9576C56.0217 27.0604 56.2205 27.2575 56.3255 27.506C56.4305 27.7546 56.4331 28.0345 56.3329 28.285L55.2016 31.0903C55.1004 31.34 54.9042 31.5392 54.6562 31.6443C54.4081 31.7495 54.1285 31.7519 53.8787 31.6511L36.3677 24.5238C36.1179 24.4216 35.9186 24.2249 35.8133 23.9764C35.7079 23.7279 35.705 23.4479 35.8052 23.1973L36.9398 20.3848C36.9898 20.2612 37.0637 20.1488 37.1572 20.0538C37.2506 19.9588 37.3619 19.8832 37.4847 19.8313C37.6074 19.7794 37.7392 19.7522 37.8724 19.7512C38.0057 19.7503 38.1378 19.7756 38.2613 19.8258L55.7722 26.9576ZM58.1872 20.9616C58.4367 21.0646 58.6356 21.2617 58.7408 21.5102C58.846 21.7588 58.849 22.0388 58.7492 22.2896L57.6212 25.0923C57.5713 25.2158 57.4975 25.3283 57.4041 25.4233C57.3107 25.5184 57.1995 25.5941 57.0768 25.6461C56.9541 25.6981 56.8223 25.7254 56.6891 25.7264C56.5558 25.7275 56.4237 25.7022 56.3002 25.6522L38.7884 18.5185C38.5388 18.4157 38.3398 18.2188 38.2344 17.9703C38.1291 17.7218 38.1258 17.4418 38.2254 17.191L39.3536 14.3838C39.4033 14.2602 39.4769 14.1476 39.5703 14.0526C39.6636 13.9575 39.7748 13.8819 39.8974 13.8299C40.0201 13.7779 40.1518 13.7506 40.285 13.7497C40.4182 13.7487 40.5503 13.7741 40.6737 13.8243L58.1872 20.9616Z" fill="#FF0909"/>
</g>
<defs>
<clipPath id="clip0_13_10">
<rect width="50.8475" height="50.8475" fill="white" transform="translate(6.10181 30.5514) rotate(-30)"/>
</clipPath>
</defs>
</svg>
