<svg width="196" height="81" viewBox="0 0 196 81" fill="none" xmlns="http://www.w3.org/2000/svg">
<path d="M18.679 42.5513C18.5464 41.3108 17.9877 40.3449 17.0028 39.6536C16.0275 38.9623 14.7585 38.6167 13.196 38.6167C12.0975 38.6167 11.1553 38.7824 10.3693 39.1138C9.58333 39.4453 8.98201 39.8951 8.56534 40.4633C8.14867 41.0314 7.93561 41.6801 7.92614 42.4093C7.92614 43.0153 8.06345 43.5409 8.33807 43.986C8.62216 44.4311 9.00568 44.8099 9.48864 45.1224C9.97159 45.4254 10.5066 45.6811 11.0938 45.8894C11.6809 46.0977 12.2727 46.2729 12.8693 46.415L15.5966 47.0968C16.6951 47.3525 17.7509 47.6981 18.7642 48.1337C19.7869 48.5693 20.7008 49.1186 21.5057 49.7814C22.3201 50.4443 22.964 51.2445 23.4375 52.182C23.911 53.1195 24.1477 54.218 24.1477 55.4775C24.1477 57.182 23.7121 58.683 22.8409 59.9803C21.9697 61.2682 20.7102 62.2767 19.0625 63.0059C17.4242 63.7256 15.4403 64.0854 13.1108 64.0854C10.8475 64.0854 8.88258 63.735 7.21591 63.0343C5.55871 62.3335 4.26136 61.3108 3.32386 59.9661C2.39583 58.6214 1.89394 56.9831 1.81818 55.0513H7.00284C7.0786 56.0646 7.3911 56.9074 7.94034 57.5797C8.48958 58.2521 9.20455 58.754 10.0852 59.0854C10.9754 59.4169 11.9697 59.5826 13.0682 59.5826C14.214 59.5826 15.2178 59.4121 16.0795 59.0712C16.9508 58.7208 17.6326 58.2379 18.125 57.6224C18.6174 56.9974 18.8684 56.2682 18.8778 55.4349C18.8684 54.6773 18.6458 54.0523 18.2102 53.5599C17.7746 53.058 17.1638 52.6413 16.3778 52.3099C15.6013 51.9689 14.6922 51.6659 13.6506 51.4008L10.3409 50.5485C7.94508 49.933 6.05114 49.0002 4.65909 47.7502C3.27652 46.4907 2.58523 44.8193 2.58523 42.736C2.58523 41.022 3.04924 39.521 3.97727 38.2331C4.91477 36.9453 6.18845 35.9462 7.7983 35.236C9.40814 34.5163 11.2311 34.1564 13.267 34.1564C15.3314 34.1564 17.1402 34.5163 18.6932 35.236C20.2557 35.9462 21.482 36.9358 22.3722 38.2047C23.2623 39.4642 23.7216 40.9131 23.75 42.5513H18.679ZM34.897 64.0854C33.5144 64.0854 32.2692 63.8392 31.1612 63.3468C30.0627 62.8449 29.1915 62.1063 28.5476 61.1309C27.9131 60.1555 27.5959 58.9528 27.5959 57.5229C27.5959 56.2919 27.8232 55.2739 28.2777 54.4689C28.7322 53.664 29.3525 53.0201 30.1385 52.5371C30.9245 52.0542 31.8099 51.6896 32.7947 51.4434C33.7891 51.1877 34.8165 51.003 35.8771 50.8894C37.1555 50.7568 38.1925 50.6385 38.9879 50.5343C39.7834 50.4206 40.361 50.2502 40.7209 50.0229C41.0902 49.7862 41.2749 49.4216 41.2749 48.9292V48.8439C41.2749 47.7739 40.9576 46.9453 40.3232 46.3581C39.6887 45.771 38.7749 45.4775 37.5817 45.4775C36.3222 45.4775 35.3232 45.7521 34.5845 46.3013C33.8554 46.8506 33.3629 47.4992 33.1072 48.2474L28.3061 47.5655C28.6849 46.2398 29.3099 45.1318 30.1811 44.2417C31.0523 43.342 32.1177 42.6697 33.3771 42.2246C34.6366 41.7701 36.0286 41.5428 37.5533 41.5428C38.6044 41.5428 39.6508 41.6659 40.6925 41.9121C41.7341 42.1583 42.6858 42.5655 43.5476 43.1337C44.4093 43.6924 45.1006 44.4547 45.6214 45.4206C46.1518 46.3866 46.4169 47.5939 46.4169 49.0428V63.6451H41.4737V60.6479H41.3033C40.9908 61.254 40.5504 61.8222 39.9822 62.3525C39.4235 62.8733 38.718 63.2947 37.8658 63.6167C37.023 63.9292 36.0334 64.0854 34.897 64.0854ZM36.2322 60.307C37.2644 60.307 38.1593 60.1034 38.9169 59.6962C39.6745 59.2796 40.2569 58.7303 40.6641 58.0485C41.0807 57.3667 41.2891 56.6233 41.2891 55.8184V53.2474C41.1281 53.3799 40.8535 53.503 40.4652 53.6167C40.0864 53.7303 39.6603 53.8297 39.1868 53.915C38.7133 54.0002 38.2446 54.076 37.7805 54.1422C37.3165 54.2085 36.9141 54.2653 36.5732 54.3127C35.8061 54.4169 35.1196 54.5873 34.5135 54.8241C33.9074 55.0608 33.4292 55.3922 33.0788 55.8184C32.7285 56.235 32.5533 56.7748 32.5533 57.4377C32.5533 58.3847 32.8989 59.0996 33.5902 59.5826C34.2815 60.0655 35.1622 60.307 36.2322 60.307ZM62.6385 41.8269V45.8042H49.7408V41.8269H62.6385ZM52.9652 63.6451V39.7672C52.9652 38.2994 53.2682 37.0778 53.8743 36.1025C54.4898 35.1271 55.3137 34.3979 56.3459 33.915C57.3781 33.432 58.5239 33.1905 59.7834 33.1905C60.6735 33.1905 61.4643 33.2616 62.1555 33.4036C62.8468 33.5456 63.3582 33.6735 63.6896 33.7871L62.6669 37.7644C62.4491 37.6981 62.1745 37.6318 61.843 37.5655C61.5116 37.4898 61.1423 37.4519 60.7351 37.4519C59.7786 37.4519 59.1016 37.6839 58.7038 38.1479C58.3156 38.6025 58.1214 39.2559 58.1214 40.1081V63.6451H52.9652ZM72.2017 64.0854C70.8191 64.0854 69.5739 63.8392 68.4659 63.3468C67.3674 62.8449 66.4962 62.1063 65.8523 61.1309C65.2178 60.1555 64.9006 58.9528 64.9006 57.5229C64.9006 56.2919 65.1278 55.2739 65.5824 54.4689C66.0369 53.664 66.6572 53.0201 67.4432 52.5371C68.2292 52.0542 69.1146 51.6896 70.0994 51.4434C71.0938 51.1877 72.1212 51.003 73.1818 50.8894C74.4602 50.7568 75.4972 50.6385 76.2926 50.5343C77.0881 50.4206 77.6657 50.2502 78.0256 50.0229C78.3949 49.7862 78.5795 49.4216 78.5795 48.9292V48.8439C78.5795 47.7739 78.2623 46.9453 77.6278 46.3581C76.9934 45.771 76.0795 45.4775 74.8864 45.4775C73.6269 45.4775 72.6278 45.7521 71.8892 46.3013C71.16 46.8506 70.6676 47.4992 70.4119 48.2474L65.6108 47.5655C65.9896 46.2398 66.6146 45.1318 67.4858 44.2417C68.357 43.342 69.4223 42.6697 70.6818 42.2246C71.9413 41.7701 73.3333 41.5428 74.858 41.5428C75.9091 41.5428 76.9555 41.6659 77.9972 41.9121C79.0388 42.1583 79.9905 42.5655 80.8523 43.1337C81.714 43.6924 82.4053 44.4547 82.9261 45.4206C83.4564 46.3866 83.7216 47.5939 83.7216 49.0428V63.6451H78.7784V60.6479H78.608C78.2955 61.254 77.8551 61.8222 77.2869 62.3525C76.7282 62.8733 76.0227 63.2947 75.1705 63.6167C74.3277 63.9292 73.3381 64.0854 72.2017 64.0854ZM73.5369 60.307C74.5691 60.307 75.464 60.1034 76.2216 59.6962C76.9792 59.2796 77.5616 58.7303 77.9688 58.0485C78.3854 57.3667 78.5938 56.6233 78.5938 55.8184V53.2474C78.4328 53.3799 78.1581 53.503 77.7699 53.6167C77.3911 53.7303 76.965 53.8297 76.4915 53.915C76.018 54.0002 75.5492 54.076 75.0852 54.1422C74.6212 54.2085 74.2188 54.2653 73.8778 54.3127C73.1108 54.4169 72.4242 54.5873 71.8182 54.8241C71.2121 55.0608 70.7339 55.3922 70.3835 55.8184C70.0331 56.235 69.858 56.7748 69.858 57.4377C69.858 58.3847 70.2036 59.0996 70.8949 59.5826C71.5862 60.0655 72.4669 60.307 73.5369 60.307ZM88.892 63.6451V41.8269H93.8778V45.4633H94.1051C94.5028 44.2038 95.1847 43.2331 96.1506 42.5513C97.1259 41.86 98.2386 41.5144 99.4886 41.5144C99.7727 41.5144 100.09 41.5286 100.44 41.557C100.8 41.576 101.098 41.6091 101.335 41.6564V46.3866C101.117 46.3108 100.772 46.2445 100.298 46.1877C99.8343 46.1214 99.3845 46.0883 98.9489 46.0883C98.0114 46.0883 97.1686 46.2919 96.4205 46.6991C95.6818 47.0968 95.0994 47.6508 94.6733 48.361C94.2472 49.0712 94.0341 49.8903 94.0341 50.8184V63.6451H88.892ZM104.751 63.6451V41.8269H109.893V63.6451H104.751ZM107.337 38.7303C106.522 38.7303 105.821 38.4604 105.234 37.9206C104.647 37.3714 104.354 36.7133 104.354 35.9462C104.354 35.1697 104.647 34.5116 105.234 33.9718C105.821 33.4225 106.522 33.1479 107.337 33.1479C108.161 33.1479 108.861 33.4225 109.439 33.9718C110.026 34.5116 110.32 35.1697 110.32 35.9462C110.32 36.7133 110.026 37.3714 109.439 37.9206C108.861 38.4604 108.161 38.7303 107.337 38.7303Z" fill="#1D2C38"/>
<rect x="116.366" y="29.866" width="57" height="57" transform="rotate(-30 116.366 29.866)" stroke="#FF0000" stroke-width="2"/>
<g clip-path="url(#clip0_13_7)">
<path d="M157.171 60.179C157.417 60.2798 157.613 60.4733 157.716 60.7175C157.82 60.9618 157.823 61.2371 157.724 61.4835L156.614 64.2421C156.515 64.4874 156.322 64.6831 156.078 64.7863C155.834 64.8894 155.559 64.8916 155.314 64.7922L138.089 57.7832C137.844 57.6823 137.648 57.4886 137.544 57.2443C137.441 56.9999 137.438 56.7247 137.537 56.4783L138.651 53.7211C138.7 53.5995 138.773 53.4889 138.865 53.3955C138.957 53.302 139.066 53.2277 139.187 53.1766C139.308 53.1255 139.437 53.0987 139.569 53.0977C139.7 53.0968 139.83 53.1217 139.951 53.171L157.171 60.179ZM160.959 30.1112C161.204 30.2121 161.4 30.4058 161.503 30.6501C161.607 30.8944 161.61 31.1697 161.511 31.4161L154.519 48.7668C154.419 49.0121 154.226 49.2078 153.982 49.3109C153.739 49.4141 153.464 49.4162 153.218 49.3169L148.773 47.5048C148.528 47.4039 148.332 47.2103 148.229 46.9659C148.125 46.7216 148.122 46.4463 148.221 46.1999L155.211 28.8505C155.26 28.729 155.332 28.6184 155.424 28.525C155.516 28.4316 155.626 28.3573 155.746 28.3062C155.867 28.2552 155.997 28.2284 156.128 28.2275C156.259 28.2266 156.389 28.2515 156.51 28.3008L160.959 30.1112ZM159.549 54.2737C160.059 54.4809 160.307 55.068 160.102 55.5786L158.988 58.3376C158.939 58.4592 158.866 58.5698 158.774 58.6632C158.682 58.7567 158.573 58.831 158.452 58.8821C158.331 58.9332 158.202 58.96 158.071 58.961C157.939 58.9619 157.809 58.937 157.688 58.8877L140.469 51.8757C140.224 51.7749 140.028 51.5814 139.925 51.3372C139.821 51.0929 139.818 50.8177 139.916 50.5712L141.026 47.8148C141.126 47.5695 141.319 47.3738 141.563 47.2707C141.806 47.1675 142.081 47.1654 142.327 47.2647L159.549 54.2737ZM169.843 26.5082C170.088 26.6093 170.283 26.8031 170.387 27.0475C170.49 27.2919 170.493 27.5672 170.394 27.8135L169.282 30.5721C169.182 30.8176 168.989 31.0135 168.745 31.1169C168.501 31.2203 168.226 31.2227 167.981 31.1235L150.761 24.1151C150.516 24.0145 150.32 23.8211 150.216 23.5767C150.113 23.3324 150.11 23.057 150.208 22.8106L151.324 20.045C151.373 19.9235 151.446 19.8129 151.538 19.7195C151.63 19.6261 151.739 19.5518 151.86 19.5007C151.981 19.4497 152.11 19.4229 152.241 19.422C152.372 19.4211 152.502 19.446 152.624 19.4953L169.843 26.5082ZM172.217 20.6122C172.463 20.7135 172.658 20.9073 172.762 21.1517C172.865 21.3961 172.868 21.6714 172.77 21.918L171.661 24.674C171.612 24.7955 171.539 24.9061 171.447 24.9996C171.355 25.093 171.246 25.1674 171.125 25.2186C171.005 25.2697 170.875 25.2966 170.744 25.2976C170.613 25.2986 170.483 25.2738 170.362 25.2246L153.142 18.2098C152.896 18.1087 152.701 17.9151 152.597 17.6707C152.494 17.4264 152.49 17.1511 152.588 16.9044L153.698 14.144C153.746 14.0225 153.819 13.9118 153.911 13.8183C154.002 13.7249 154.112 13.6504 154.232 13.5993C154.353 13.5482 154.483 13.5214 154.614 13.5205C154.744 13.5195 154.874 13.5445 154.996 13.5938L172.217 20.6122Z" fill="#FF0909"/>
</g>
<defs>
<clipPath id="clip0_13_7">
<rect width="50" height="50" fill="white" transform="translate(121 30.0421) rotate(-30)"/>
</clipPath>
</defs>
</svg>
