<svg width="339" height="82" viewBox="0 0 339 82" fill="none" xmlns="http://www.w3.org/2000/svg">
<rect x="1.36603" y="30.366" width="58" height="58" transform="rotate(-30 1.36603 30.366)" stroke="#FF0000" stroke-width="2"/>
<g clip-path="url(#clip0_23_14)">
<path d="M42.8862 61.1991C43.1358 61.3015 43.3349 61.4983 43.4402 61.7467C43.5455 61.9951 43.5485 62.275 43.4486 62.5257L42.3197 65.3311C42.2184 65.5805 42.0222 65.7795 41.7742 65.8844C41.5263 65.9893 41.2468 65.9915 40.9973 65.8905L23.4803 58.7626C23.2308 58.66 23.0318 58.463 22.9267 58.2146C22.8215 57.9661 22.8187 57.6861 22.9187 57.4356L24.0518 54.6317C24.1018 54.5081 24.1758 54.3956 24.2693 54.3005C24.3629 54.2055 24.4742 54.1299 24.5971 54.0779C24.7199 54.026 24.8517 53.9987 24.985 53.9978C25.1184 53.9968 25.2506 54.0221 25.3742 54.0723L42.8862 61.1991ZM46.738 30.6216C46.9876 30.7242 47.1865 30.9212 47.2917 31.1696C47.3968 31.4181 47.3997 31.6981 47.2996 31.9486L40.1887 49.5934C40.0874 49.8429 39.8912 50.0419 39.6432 50.1468C39.3953 50.2517 39.1158 50.2539 38.8663 50.1529L34.3456 48.31C34.0961 48.2074 33.8971 48.0105 33.792 47.762C33.6868 47.5135 33.684 47.2336 33.784 46.983L40.8922 29.3395C40.9422 29.216 41.016 29.1035 41.1095 29.0085C41.203 28.9136 41.3143 28.838 41.437 28.7861C41.5598 28.7341 41.6915 28.7069 41.8248 28.706C41.9581 28.705 42.0902 28.7304 42.2137 28.7805L46.738 30.6216ZM45.3046 55.1937C45.8225 55.4044 46.0751 56.0014 45.8662 56.5207L44.734 59.3264C44.6839 59.45 44.61 59.5626 44.5164 59.6576C44.4229 59.7526 44.3115 59.8282 44.1887 59.8802C44.0659 59.9321 43.934 59.9594 43.8007 59.9603C43.6674 59.9613 43.5351 59.936 43.4116 59.8859L25.9011 52.755C25.6515 52.6525 25.4524 52.4557 25.347 52.2073C25.2417 51.9589 25.2387 51.679 25.3386 51.4284L26.4675 48.6253C26.5688 48.3758 26.765 48.1768 27.0129 48.0719C27.2609 47.967 27.5403 47.9649 27.7899 48.0659L45.3046 55.1937ZM55.7722 26.9576C56.0217 27.0604 56.2205 27.2575 56.3255 27.506C56.4305 27.7546 56.4331 28.0345 56.3329 28.285L55.2016 31.0903C55.1004 31.34 54.9042 31.5392 54.6562 31.6443C54.4081 31.7495 54.1285 31.7519 53.8787 31.6511L36.3677 24.5238C36.1179 24.4216 35.9186 24.2249 35.8133 23.9764C35.7079 23.7279 35.705 23.4479 35.8052 23.1973L36.9398 20.3848C36.9898 20.2612 37.0637 20.1488 37.1572 20.0538C37.2506 19.9588 37.3619 19.8832 37.4847 19.8313C37.6074 19.7794 37.7392 19.7522 37.8724 19.7512C38.0057 19.7503 38.1378 19.7756 38.2613 19.8258L55.7722 26.9576ZM58.1872 20.9616C58.4367 21.0646 58.6356 21.2617 58.7408 21.5102C58.846 21.7588 58.849 22.0388 58.7492 22.2896L57.6212 25.0923C57.5713 25.2158 57.4975 25.3283 57.4041 25.4233C57.3107 25.5184 57.1995 25.5941 57.0768 25.6461C56.9541 25.6981 56.8223 25.7254 56.6891 25.7264C56.5558 25.7275 56.4237 25.7022 56.3002 25.6522L38.7884 18.5185C38.5388 18.4157 38.3398 18.2188 38.2344 17.9703C38.1291 17.7218 38.1258 17.4418 38.2254 17.191L39.3536 14.3838C39.4033 14.2602 39.4769 14.1476 39.5703 14.0526C39.6636 13.9575 39.7748 13.8819 39.8974 13.8299C40.0201 13.7779 40.1518 13.7506 40.285 13.7497C40.4182 13.7487 40.5503 13.7741 40.6737 13.8243L58.1872 20.9616Z" fill="#FF0909"/>
</g>
<path d="M112.679 34.9062C112.546 33.6657 111.988 32.6998 111.003 32.0085C110.027 31.3172 108.759 30.9716 107.196 30.9716C106.098 30.9716 105.155 31.1373 104.369 31.4688C103.583 31.8002 102.982 32.25 102.565 32.8182C102.149 33.3864 101.936 34.035 101.926 34.7642C101.926 35.3703 102.063 35.8958 102.338 36.3409C102.622 36.786 103.006 37.1648 103.489 37.4773C103.972 37.7803 104.507 38.036 105.094 38.2443C105.681 38.4527 106.273 38.6278 106.869 38.7699L109.597 39.4517C110.695 39.7074 111.751 40.053 112.764 40.4886C113.787 40.9242 114.701 41.4735 115.506 42.1364C116.32 42.7992 116.964 43.5994 117.438 44.5369C117.911 45.4744 118.148 46.5729 118.148 47.8324C118.148 49.5369 117.712 51.0379 116.841 52.3352C115.97 53.6231 114.71 54.6316 113.062 55.3608C111.424 56.0805 109.44 56.4403 107.111 56.4403C104.848 56.4403 102.883 56.09 101.216 55.3892C99.5587 54.6884 98.2614 53.6657 97.3239 52.321C96.3958 50.9763 95.8939 49.3381 95.8182 47.4062H101.003C101.079 48.4195 101.391 49.2623 101.94 49.9347C102.49 50.607 103.205 51.1089 104.085 51.4403C104.975 51.7718 105.97 51.9375 107.068 51.9375C108.214 51.9375 109.218 51.767 110.08 51.4261C110.951 51.0758 111.633 50.5928 112.125 49.9773C112.617 49.3523 112.868 48.6231 112.878 47.7898C112.868 47.0322 112.646 46.4072 112.21 45.9148C111.775 45.4129 111.164 44.9962 110.378 44.6648C109.601 44.3239 108.692 44.0208 107.651 43.7557L104.341 42.9034C101.945 42.2879 100.051 41.3551 98.6591 40.1051C97.2765 38.8456 96.5852 37.1742 96.5852 35.0909C96.5852 33.3769 97.0492 31.8759 97.9773 30.5881C98.9148 29.3002 100.188 28.3011 101.798 27.5909C103.408 26.8712 105.231 26.5114 107.267 26.5114C109.331 26.5114 111.14 26.8712 112.693 27.5909C114.256 28.3011 115.482 29.2907 116.372 30.5597C117.262 31.8191 117.722 33.268 117.75 34.9062H112.679ZM128.897 56.4403C127.514 56.4403 126.269 56.1941 125.161 55.7017C124.063 55.1998 123.192 54.4612 122.548 53.4858C121.913 52.5104 121.596 51.3078 121.596 49.8778C121.596 48.6468 121.823 47.6288 122.278 46.8239C122.732 46.0189 123.353 45.375 124.138 44.892C124.924 44.4091 125.81 44.0445 126.795 43.7983C127.789 43.5426 128.817 43.358 129.877 43.2443C131.156 43.1117 132.192 42.9934 132.988 42.8892C133.783 42.7756 134.361 42.6051 134.721 42.3778C135.09 42.1411 135.275 41.7765 135.275 41.2841V41.1989C135.275 40.1288 134.958 39.3002 134.323 38.7131C133.689 38.1259 132.775 37.8324 131.582 37.8324C130.322 37.8324 129.323 38.107 128.585 38.6562C127.855 39.2055 127.363 39.8542 127.107 40.6023L122.306 39.9205C122.685 38.5947 123.31 37.4867 124.181 36.5966C125.052 35.697 126.118 35.0246 127.377 34.5795C128.637 34.125 130.029 33.8977 131.553 33.8977C132.604 33.8977 133.651 34.0208 134.692 34.267C135.734 34.5133 136.686 34.9205 137.548 35.4886C138.409 36.0473 139.101 36.8097 139.621 37.7756C140.152 38.7415 140.417 39.9489 140.417 41.3977V56H135.474V53.0028H135.303C134.991 53.6089 134.55 54.1771 133.982 54.7074C133.424 55.2282 132.718 55.6496 131.866 55.9716C131.023 56.2841 130.033 56.4403 128.897 56.4403ZM130.232 52.6619C131.264 52.6619 132.159 52.4583 132.917 52.0511C133.674 51.6345 134.257 51.0852 134.664 50.4034C135.081 49.7216 135.289 48.9782 135.289 48.1733V45.6023C135.128 45.7348 134.853 45.858 134.465 45.9716C134.086 46.0852 133.66 46.1847 133.187 46.2699C132.713 46.3551 132.245 46.4309 131.781 46.4972C131.317 46.5634 130.914 46.6203 130.573 46.6676C129.806 46.7718 129.12 46.9422 128.513 47.179C127.907 47.4157 127.429 47.7472 127.079 48.1733C126.728 48.59 126.553 49.1297 126.553 49.7926C126.553 50.7396 126.899 51.4545 127.59 51.9375C128.281 52.4205 129.162 52.6619 130.232 52.6619ZM156.638 34.1818V38.1591H143.741V34.1818H156.638ZM146.965 56V32.1222C146.965 30.6544 147.268 29.4328 147.874 28.4574C148.49 27.482 149.314 26.7528 150.346 26.2699C151.378 25.7869 152.524 25.5455 153.783 25.5455C154.674 25.5455 155.464 25.6165 156.156 25.7585C156.847 25.9006 157.358 26.0284 157.69 26.142L156.667 30.1193C156.449 30.053 156.174 29.9867 155.843 29.9205C155.512 29.8447 155.142 29.8068 154.735 29.8068C153.779 29.8068 153.102 30.0388 152.704 30.5028C152.316 30.9574 152.121 31.6108 152.121 32.4631V56H146.965ZM166.202 56.4403C164.819 56.4403 163.574 56.1941 162.466 55.7017C161.367 55.1998 160.496 54.4612 159.852 53.4858C159.218 52.5104 158.901 51.3078 158.901 49.8778C158.901 48.6468 159.128 47.6288 159.582 46.8239C160.037 46.0189 160.657 45.375 161.443 44.892C162.229 44.4091 163.115 44.0445 164.099 43.7983C165.094 43.5426 166.121 43.358 167.182 43.2443C168.46 43.1117 169.497 42.9934 170.293 42.8892C171.088 42.7756 171.666 42.6051 172.026 42.3778C172.395 42.1411 172.58 41.7765 172.58 41.2841V41.1989C172.58 40.1288 172.262 39.3002 171.628 38.7131C170.993 38.1259 170.08 37.8324 168.886 37.8324C167.627 37.8324 166.628 38.107 165.889 38.6562C165.16 39.2055 164.668 39.8542 164.412 40.6023L159.611 39.9205C159.99 38.5947 160.615 37.4867 161.486 36.5966C162.357 35.697 163.422 35.0246 164.682 34.5795C165.941 34.125 167.333 33.8977 168.858 33.8977C169.909 33.8977 170.955 34.0208 171.997 34.267C173.039 34.5133 173.991 34.9205 174.852 35.4886C175.714 36.0473 176.405 36.8097 176.926 37.7756C177.456 38.7415 177.722 39.9489 177.722 41.3977V56H172.778V53.0028H172.608C172.295 53.6089 171.855 54.1771 171.287 54.7074C170.728 55.2282 170.023 55.6496 169.17 55.9716C168.328 56.2841 167.338 56.4403 166.202 56.4403ZM167.537 52.6619C168.569 52.6619 169.464 52.4583 170.222 52.0511C170.979 51.6345 171.562 51.0852 171.969 50.4034C172.385 49.7216 172.594 48.9782 172.594 48.1733V45.6023C172.433 45.7348 172.158 45.858 171.77 45.9716C171.391 46.0852 170.965 46.1847 170.491 46.2699C170.018 46.3551 169.549 46.4309 169.085 46.4972C168.621 46.5634 168.219 46.6203 167.878 46.6676C167.111 46.7718 166.424 46.9422 165.818 47.179C165.212 47.4157 164.734 47.7472 164.384 48.1733C164.033 48.59 163.858 49.1297 163.858 49.7926C163.858 50.7396 164.204 51.4545 164.895 51.9375C165.586 52.4205 166.467 52.6619 167.537 52.6619ZM182.892 56V34.1818H187.878V37.8182H188.105C188.503 36.5587 189.185 35.5881 190.151 34.9062C191.126 34.215 192.239 33.8693 193.489 33.8693C193.773 33.8693 194.09 33.8835 194.44 33.9119C194.8 33.9309 195.098 33.964 195.335 34.0114V38.7415C195.117 38.6657 194.772 38.5994 194.298 38.5426C193.834 38.4763 193.384 38.4432 192.949 38.4432C192.011 38.4432 191.169 38.6468 190.42 39.054C189.682 39.4517 189.099 40.0057 188.673 40.7159C188.247 41.4261 188.034 42.2453 188.034 43.1733V56H182.892ZM198.751 56V34.1818H203.893V56H198.751ZM201.337 31.0852C200.522 31.0852 199.821 30.8153 199.234 30.2756C198.647 29.7263 198.354 29.0682 198.354 28.3011C198.354 27.5246 198.647 26.8665 199.234 26.3267C199.821 25.7775 200.522 25.5028 201.337 25.5028C202.161 25.5028 202.861 25.7775 203.439 26.3267C204.026 26.8665 204.32 27.5246 204.32 28.3011C204.32 29.0682 204.026 29.7263 203.439 30.2756C202.861 30.8153 202.161 31.0852 201.337 31.0852ZM235.14 34.9062C235.007 33.6657 234.449 32.6998 233.464 32.0085C232.488 31.3172 231.219 30.9716 229.657 30.9716C228.558 30.9716 227.616 31.1373 226.83 31.4688C226.044 31.8002 225.443 32.25 225.026 32.8182C224.61 33.3864 224.397 34.035 224.387 34.7642C224.387 35.3703 224.524 35.8958 224.799 36.3409C225.083 36.786 225.467 37.1648 225.95 37.4773C226.433 37.7803 226.968 38.036 227.555 38.2443C228.142 38.4527 228.734 38.6278 229.33 38.7699L232.058 39.4517C233.156 39.7074 234.212 40.053 235.225 40.4886C236.248 40.9242 237.162 41.4735 237.967 42.1364C238.781 42.7992 239.425 43.5994 239.898 44.5369C240.372 45.4744 240.609 46.5729 240.609 47.8324C240.609 49.5369 240.173 51.0379 239.302 52.3352C238.431 53.6231 237.171 54.6316 235.523 55.3608C233.885 56.0805 231.901 56.4403 229.572 56.4403C227.308 56.4403 225.344 56.09 223.677 55.3892C222.02 54.6884 220.722 53.6657 219.785 52.321C218.857 50.9763 218.355 49.3381 218.279 47.4062H223.464C223.54 48.4195 223.852 49.2623 224.401 49.9347C224.951 50.607 225.665 51.1089 226.546 51.4403C227.436 51.7718 228.431 51.9375 229.529 51.9375C230.675 51.9375 231.679 51.767 232.54 51.4261C233.412 51.0758 234.094 50.5928 234.586 49.9773C235.078 49.3523 235.329 48.6231 235.339 47.7898C235.329 47.0322 235.107 46.4072 234.671 45.9148C234.236 45.4129 233.625 44.9962 232.839 44.6648C232.062 44.3239 231.153 44.0208 230.112 43.7557L226.802 42.9034C224.406 42.2879 222.512 41.3551 221.12 40.1051C219.737 38.8456 219.046 37.1742 219.046 35.0909C219.046 33.3769 219.51 31.8759 220.438 30.5881C221.376 29.3002 222.649 28.3011 224.259 27.5909C225.869 26.8712 227.692 26.5114 229.728 26.5114C231.792 26.5114 233.601 26.8712 235.154 27.5909C236.717 28.3011 237.943 29.2907 238.833 30.5597C239.723 31.8191 240.183 33.268 240.211 34.9062H235.14ZM250.222 43.2159V56H245.08V26.9091H250.108V37.8892H250.364C250.875 36.6581 251.666 35.6875 252.736 34.9773C253.815 34.2576 255.188 33.8977 256.855 33.8977C258.37 33.8977 259.691 34.215 260.818 34.8494C261.945 35.4839 262.816 36.4119 263.432 37.6335C264.057 38.8551 264.369 40.3466 264.369 42.108V56H259.227V42.9034C259.227 41.4356 258.848 40.2945 258.091 39.4801C257.343 38.6562 256.292 38.2443 254.938 38.2443C254.028 38.2443 253.214 38.4432 252.494 38.8409C251.784 39.2292 251.225 39.7926 250.818 40.5312C250.42 41.2699 250.222 42.1648 250.222 43.2159ZM275.889 56.4403C274.507 56.4403 273.261 56.1941 272.153 55.7017C271.055 55.1998 270.184 54.4612 269.54 53.4858C268.905 52.5104 268.588 51.3078 268.588 49.8778C268.588 48.6468 268.815 47.6288 269.27 46.8239C269.724 46.0189 270.345 45.375 271.131 44.892C271.917 44.4091 272.802 44.0445 273.787 43.7983C274.781 43.5426 275.809 43.358 276.869 43.2443C278.148 43.1117 279.185 42.9934 279.98 42.8892C280.776 42.7756 281.353 42.6051 281.713 42.3778C282.082 42.1411 282.267 41.7765 282.267 41.2841V41.1989C282.267 40.1288 281.95 39.3002 281.315 38.7131C280.681 38.1259 279.767 37.8324 278.574 37.8324C277.314 37.8324 276.315 38.107 275.577 38.6562C274.848 39.2055 274.355 39.8542 274.099 40.6023L269.298 39.9205C269.677 38.5947 270.302 37.4867 271.173 36.5966C272.045 35.697 273.11 35.0246 274.369 34.5795C275.629 34.125 277.021 33.8977 278.545 33.8977C279.597 33.8977 280.643 34.0208 281.685 34.267C282.726 34.5133 283.678 34.9205 284.54 35.4886C285.402 36.0473 286.093 36.8097 286.614 37.7756C287.144 38.7415 287.409 39.9489 287.409 41.3977V56H282.466V53.0028H282.295C281.983 53.6089 281.543 54.1771 280.974 54.7074C280.416 55.2282 279.71 55.6496 278.858 55.9716C278.015 56.2841 277.026 56.4403 275.889 56.4403ZM277.224 52.6619C278.257 52.6619 279.152 52.4583 279.909 52.0511C280.667 51.6345 281.249 51.0852 281.656 50.4034C282.073 49.7216 282.281 48.9782 282.281 48.1733V45.6023C282.12 45.7348 281.846 45.858 281.457 45.9716C281.079 46.0852 280.652 46.1847 280.179 46.2699C279.705 46.3551 279.237 46.4309 278.773 46.4972C278.309 46.5634 277.906 46.6203 277.565 46.6676C276.798 46.7718 276.112 46.9422 275.506 47.179C274.9 47.4157 274.421 47.7472 274.071 48.1733C273.721 48.59 273.545 49.1297 273.545 49.7926C273.545 50.7396 273.891 51.4545 274.582 51.9375C275.274 52.4205 276.154 52.6619 277.224 52.6619ZM292.58 64.1818V34.1818H297.636V37.7898H297.935C298.2 37.2595 298.574 36.696 299.057 36.0994C299.54 35.4934 300.193 34.9773 301.017 34.5511C301.841 34.1155 302.892 33.8977 304.17 33.8977C305.856 33.8977 307.376 34.3286 308.73 35.1903C310.094 36.0426 311.173 37.3068 311.969 38.983C312.774 40.6496 313.176 42.6951 313.176 45.1193C313.176 47.5152 312.783 49.5511 311.997 51.2273C311.211 52.9034 310.141 54.1818 308.787 55.0625C307.433 55.9432 305.899 56.3835 304.185 56.3835C302.935 56.3835 301.898 56.1752 301.074 55.7585C300.25 55.3419 299.587 54.84 299.085 54.2528C298.593 53.6562 298.209 53.0928 297.935 52.5625H297.722V64.1818H292.58ZM297.622 45.0909C297.622 46.5019 297.821 47.7377 298.219 48.7983C298.626 49.8589 299.208 50.6875 299.966 51.2841C300.733 51.8712 301.661 52.1648 302.75 52.1648C303.886 52.1648 304.838 51.8617 305.605 51.2557C306.372 50.6402 306.95 49.8021 307.338 48.7415C307.736 47.6714 307.935 46.4545 307.935 45.0909C307.935 43.7367 307.741 42.5341 307.352 41.483C306.964 40.4318 306.386 39.608 305.619 39.0114C304.852 38.4148 303.896 38.1165 302.75 38.1165C301.652 38.1165 300.719 38.4053 299.952 38.983C299.185 39.5606 298.602 40.3703 298.205 41.4119C297.816 42.4536 297.622 43.6799 297.622 45.0909ZM327.239 56.4261C325.051 56.4261 323.162 55.9716 321.571 55.0625C319.99 54.1439 318.773 52.8466 317.92 51.1705C317.068 49.4848 316.642 47.5009 316.642 45.2188C316.642 42.9744 317.068 41.0047 317.92 39.3097C318.782 37.6051 319.985 36.2794 321.528 35.3324C323.072 34.3759 324.885 33.8977 326.969 33.8977C328.313 33.8977 329.582 34.1155 330.776 34.5511C331.978 34.9773 333.039 35.6402 333.957 36.5398C334.885 37.4394 335.615 38.5852 336.145 39.9773C336.675 41.3598 336.94 43.0076 336.94 44.9205V46.4972H319.057V43.0312H332.011C332.002 42.0464 331.789 41.1705 331.372 40.4034C330.955 39.6269 330.373 39.0161 329.625 38.571C328.886 38.1259 328.025 37.9034 327.04 37.9034C325.989 37.9034 325.065 38.1591 324.27 38.6705C323.474 39.1723 322.854 39.8352 322.409 40.6591C321.973 41.4735 321.751 42.3684 321.741 43.3438V46.3693C321.741 47.6383 321.973 48.7273 322.438 49.6364C322.902 50.536 323.55 51.2273 324.384 51.7102C325.217 52.1837 326.192 52.4205 327.31 52.4205C328.058 52.4205 328.735 52.3163 329.341 52.108C329.947 51.8902 330.473 51.5729 330.918 51.1562C331.363 50.7396 331.699 50.2235 331.926 49.608L336.727 50.1477C336.424 51.4167 335.847 52.5246 334.994 53.4716C334.152 54.4091 333.072 55.1383 331.756 55.6591C330.439 56.1705 328.934 56.4261 327.239 56.4261Z" fill="#1D2C38"/>
<defs>
<clipPath id="clip0_23_14">
<rect width="50.8475" height="50.8475" fill="white" transform="translate(6.10181 30.5514) rotate(-30)"/>
</clipPath>
</defs>
</svg>
